# xmcd
#
# Track frame offsets:
#	150
#	14225
#	29693
#	47397
#	60095
#	76929
#	90197
#	106600
#	119498
#	134096
#
# Disc length: 1957 seconds
#
# Revision: 0
# Processed by: cddbd v1.4PL0 Copyright (c) Steve Scherf et al.
# Submitted via: audiograbber 1.82.02
#
DISCID=7607a30a
DTITLE=Aaron Tippin - Read Between The Lines
DYEAR=1992
DGENRE=Country
TTITLE0=The Sound Of Your Goodbye (Sticks And Stones)
TTITLE1=My Blue Angel
TTITLE2=If I Had It To Do Over
TTITLE3=There Ain't Nothin' Wrong With The Radio
TTITLE4=Read Between The Lines
TTITLE5=This Heart
TTITLE6=These Sweet Dreams
TTITLE7=I Was Born With A Broken Heart
TTITLE8=I Wouldn't Have It Any Other Way
TTITLE9=I Miss Misbehavin'
EXTD=
EXTT0=
EXTT1=
EXTT2=
EXTT3=
EXTT4=
EXTT5=
EXTT6=
EXTT7=
EXTT8=
EXTT9=
PLAYORDER=
